# xmcd
#
# Track frame offsets:
# 150
# 14695
# 33780
# 46964
# 62962
# 82028
# 101606
# 116869
# 143016
# 159177
# 175377
# 193968
# 209418
# 224915
# 237672
#
# Disc length: 3397 seconds
#
#
# Revision: 0
# Processed by: cddbd v1.5.2PL0 Copyright (c) Steve Scherf et al.
# Submitted via: FreeRIP 2.945 
#
DISCID=e70d430f
DTITLE=Leonardo - Canta Grandes Sucessos  Vol.2
DYEAR=1900
DGENRE=Romantico
TTITLE0=Tudo passará
TTITLE1=Hey
TTITLE2=Eu só tenho um caminho
TTITLE3=O que é que há
TTITLE4=Deus o que fazer?
TTITLE5=Me esqueci de viver
TTITLE6=Se ainda existe amor
TTITLE7=Garoto de aluguel
TTITLE8=A última vez
TTITLE9=Desencontro de primavera
TTITLE10=Lembranças
TTITLE11=Sol de primavera
TTITLE12=Duas vezes você
TTITLE13=Serenata
TTITLE14=Pareço um menino
EXTD=\n \n \n   \n
EXTT0=
EXTT1=
EXTT2=
EXTT3=
EXTT4=
EXTT5=
EXTT6=
EXTT7=
EXTT8=
EXTT9=
EXTT10=
EXTT11=
EXTT12=
EXTT13=
EXTT14=
PLAYORDER=
